<svg width="144" height="42" viewBox="0 0 144 42" fill="none" xmlns="http://www.w3.org/2000/svg">
<g clip-path="url(#clip0_2_14)">
<path d="M95.482 3.91258C92.876 1.40702 89.769 0.104126 86.061 0.104126C82.353 0.104126 79.246 1.40702 76.64 3.91258C74.034 6.41814 72.731 9.525 72.731 13.133C72.731 16.7411 74.034 19.848 76.64 22.3535C79.246 24.8591 82.353 26.162 86.061 26.162C88.266 26.162 90.27 25.6609 92.074 24.7589L90.571 21.9526L89.97 20.75V20.6497C88.767 21.2511 87.464 21.5517 86.061 21.5517C83.656 21.5517 81.651 20.75 79.947 19.0462C78.244 17.4426 77.442 15.4382 77.442 13.0328C77.442 10.7277 78.244 8.7233 79.947 7.0195C81.651 5.31569 83.656 4.51392 86.061 4.51392C88.466 4.51392 90.471 5.31569 92.175 7.0195C93.878 8.7233 94.68 10.6275 94.68 13.0328V25.6609H99.391V13.0328C99.391 9.525 98.088 6.41814 95.482 3.91258Z" fill="#4B4B4D"/>
<path d="M99.391 13.0328V25.7611H94.68V17.7433C96.384 16.5406 98.188 14.8368 99.391 13.0328Z" fill="#B03131"/>
<path d="M0.370789 13.2333C0.370789 5.81681 5.98319 0.60524 14.001 0.60524C18.9119 0.60524 22.8206 2.60969 24.7248 6.31792L20.2148 8.9237C18.7115 6.51836 16.4064 5.51614 13.9008 5.51614C9.59119 5.51614 6.28389 8.5228 6.28389 13.2333C6.28389 18.0439 9.59119 20.9504 13.9008 20.9504C16.4064 20.9504 18.7115 19.848 20.2148 17.5428L24.7248 20.1486C22.8206 23.8568 18.9119 25.9615 14.001 25.9615C6.08339 25.9615 0.370789 20.6497 0.370789 13.2333Z" fill="#4B4B4D"/>
<path d="M43.266 0.60524V6.11748C42.7648 6.01725 42.364 6.01725 41.8629 6.01725C37.3528 6.01725 34.5466 8.623 34.5466 13.6342V25.5606H28.6335V0.90591H34.2459V4.51392C36.0499 1.90813 39.1568 0.60524 43.266 0.60524Z" fill="#4B4B4D"/>
<path d="M70.526 15.1375H50.7827C51.4842 18.7455 54.591 21.0506 58.901 21.0506C61.707 21.0506 63.912 20.1486 65.716 18.3446L68.923 21.9526C66.618 24.5584 63.11 25.9615 58.8 25.9615C50.3818 25.9615 44.8695 20.6497 44.8695 13.3335C44.8695 6.01725 50.3818 0.70546 57.898 0.70546C65.215 0.70546 70.627 5.71658 70.627 13.4337C70.627 13.8346 70.526 14.5362 70.526 15.1375ZM50.6824 11.2288H65.014C64.513 7.6208 61.807 5.21547 57.898 5.21547C54.09 5.21547 51.2838 7.6208 50.6824 11.2288Z" fill="#4B4B4D"/>
<path d="M116.529 0.60524V6.11748C116.027 6.01725 115.627 6.01725 115.125 6.01725C110.615 6.01725 107.809 8.623 107.809 13.6342V25.5606H101.896V0.90591H107.509V4.51392C109.212 1.90813 112.319 0.60524 116.529 0.60524Z" fill="#4B4B4D"/>
<path d="M143.689 15.1375H123.945C124.647 18.7455 127.753 21.0506 132.063 21.0506C134.869 21.0506 137.074 20.1486 138.878 18.3446L142.085 21.9526C139.78 24.5584 136.272 25.9615 131.963 25.9615C123.544 25.9615 118.032 20.6497 118.032 13.3335C118.032 6.01725 123.544 0.70546 131.061 0.70546C138.377 0.70546 143.789 5.71658 143.789 13.4337C143.789 13.8346 143.789 14.5362 143.689 15.1375ZM123.945 11.2288H138.277C137.776 7.6208 135.07 5.21547 131.161 5.21547C127.252 5.21547 124.446 7.6208 123.945 11.2288Z" fill="#4B4B4D"/>
<path d="M77.241 40.4938L77.843 39.3913C78.544 39.8924 79.547 40.1931 80.549 40.1931C81.852 40.1931 82.453 39.7922 82.453 39.0907C82.453 37.2867 77.542 38.8902 77.542 35.7833C77.542 34.3802 78.845 33.4782 80.849 33.4782C81.852 33.4782 83.054 33.7789 83.656 34.1798L83.054 35.2822C82.353 34.7811 81.551 34.6809 80.749 34.6809C79.547 34.6809 78.945 35.182 78.945 35.7833C78.945 37.5873 83.956 36.084 83.956 39.1909C83.956 40.594 82.653 41.496 80.549 41.496C79.146 41.3958 77.843 40.9949 77.241 40.4938Z" fill="#4B4B4D"/>
<path d="M85.359 31.0729C85.359 30.5718 85.76 30.1709 86.362 30.1709C86.963 30.1709 87.364 30.5718 87.364 31.0729C87.364 31.574 86.963 31.9749 86.362 31.9749C85.76 31.9749 85.359 31.574 85.359 31.0729ZM85.66 33.4782H87.063V41.2956H85.66V33.4782Z" fill="#4B4B4D"/>
<path d="M88.767 40.4938L89.368 39.3913C90.07 39.8924 91.072 40.1931 92.074 40.1931C93.377 40.1931 93.979 39.7922 93.979 39.0907C93.979 37.2867 89.068 38.8902 89.068 35.7833C89.068 34.3802 90.371 33.4782 92.375 33.4782C93.377 33.4782 94.58 33.7789 95.181 34.1798L94.58 35.2822C93.878 34.7811 93.077 34.6809 92.275 34.6809C91.072 34.6809 90.471 35.182 90.471 35.7833C90.471 37.5873 95.482 36.084 95.482 39.1909C95.482 40.594 94.179 41.496 92.074 41.496C90.671 41.3958 89.368 40.9949 88.767 40.4938Z" fill="#4B4B4D"/>
<path d="M101.595 40.7945C101.195 41.1953 100.493 41.2956 99.892 41.2956C98.288 41.2956 97.386 40.3936 97.386 38.8902V34.5807H96.083V33.4782H97.386V31.7744H98.789V33.4782H100.994V34.6809H98.789V38.8902C98.789 39.692 99.19 40.1931 99.992 40.1931C100.393 40.1931 100.794 40.0929 101.094 39.7922L101.595 40.7945Z" fill="#4B4B4D"/>
<path d="M110.114 37.888H103.7C103.901 39.2911 105.003 40.1931 106.506 40.1931C107.408 40.1931 108.21 39.8924 108.811 39.2911L109.613 40.1931C108.912 40.9949 107.809 41.496 106.506 41.496C104.001 41.496 102.297 39.7922 102.297 37.4871C102.297 35.182 104.001 33.4782 106.206 33.4782C108.511 33.4782 110.114 35.0818 110.114 37.4871C110.114 37.4871 110.114 37.6876 110.114 37.888ZM103.7 36.7856H108.711C108.611 35.4827 107.609 34.5807 106.206 34.5807C104.903 34.5807 103.901 35.4827 103.7 36.7856Z" fill="#4B4B4D"/>
<path d="M125.148 36.7856V41.2956H123.745V36.986C123.745 35.4827 123.043 34.6809 121.74 34.6809C120.337 34.6809 119.435 35.5829 119.435 37.2867V41.2956H118.032V36.986C118.032 35.4827 117.33 34.6809 116.028 34.6809C114.624 34.6809 113.722 35.5829 113.722 37.2867V41.2956H112.319V33.4782H113.722V34.6809C114.324 33.8791 115.226 33.4782 116.428 33.4782C117.631 33.4782 118.633 33.9793 119.134 34.8813C119.736 33.9793 120.838 33.4782 122.141 33.4782C123.845 33.378 125.148 34.4804 125.148 36.7856Z" fill="#4B4B4D"/>
<path d="M133.967 36.5851V41.2956H132.664V40.2933C132.163 40.9949 131.362 41.3958 130.059 41.3958C128.255 41.3958 127.152 40.4938 127.152 39.0907C127.152 37.7878 127.954 36.7856 130.259 36.7856H132.464V36.4849C132.464 35.2822 131.762 34.5807 130.359 34.5807C129.457 34.5807 128.455 34.8813 127.854 35.3824L127.252 34.28C128.054 33.6787 129.257 33.2778 130.46 33.2778C132.765 33.378 133.967 34.3802 133.967 36.5851ZM132.564 38.8902V37.7878H130.359C128.956 37.7878 128.555 38.2889 128.555 38.9905C128.555 39.7922 129.157 40.2933 130.259 40.2933C131.362 40.2933 132.163 39.7922 132.564 38.8902Z" fill="#4B4B4D"/>
<path d="M135.571 40.4938L136.172 39.3913C136.874 39.8924 137.876 40.1931 138.878 40.1931C140.181 40.1931 140.782 39.7922 140.782 39.0907C140.782 37.2867 135.872 38.8902 135.872 35.7833C135.872 34.3802 137.174 33.4782 139.179 33.4782C140.181 33.4782 141.384 33.7789 141.985 34.1798L141.384 35.2822C140.682 34.7811 139.88 34.6809 139.079 34.6809C137.876 34.6809 137.275 35.182 137.275 35.7833C137.275 37.5873 142.286 36.084 142.286 39.1909C142.286 40.594 140.983 41.496 138.878 41.496C137.475 41.3958 136.272 40.9949 135.571 40.4938Z" fill="#4B4B4D"/>
</g>
<defs>
<clipPath id="clip0_2_14">
<rect width="144" height="42" fill="white"/>
</clipPath>
</defs>
</svg>
