<svg width="25" height="24" viewBox="0 0 25 24" fill="none" xmlns="http://www.w3.org/2000/svg">
<path d="M6.5 20C5.66667 20 4.95833 19.7083 4.375 19.125C3.79167 18.5417 3.5 17.8333 3.5 17H1.5V6C1.5 5.45 1.69583 4.97917 2.0875 4.5875C2.47917 4.19583 2.95 4 3.5 4H17.5V8H20.5L23.5 12V17H21.5C21.5 17.8333 21.2083 18.5417 20.625 19.125C20.0417 19.7083 19.3333 20 18.5 20C17.6667 20 16.9583 19.7083 16.375 19.125C15.7917 18.5417 15.5 17.8333 15.5 17H9.5C9.5 17.8333 9.20833 18.5417 8.625 19.125C8.04167 19.7083 7.33333 20 6.5 20ZM6.5 18C6.78333 18 7.02083 17.9042 7.2125 17.7125C7.40417 17.5208 7.5 17.2833 7.5 17C7.5 16.7167 7.40417 16.4792 7.2125 16.2875C7.02083 16.0958 6.78333 16 6.5 16C6.21667 16 5.97917 16.0958 5.7875 16.2875C5.59583 16.4792 5.5 16.7167 5.5 17C5.5 17.2833 5.59583 17.5208 5.7875 17.7125C5.97917 17.9042 6.21667 18 6.5 18ZM3.5 15H4.3C4.58333 14.7 4.90833 14.4583 5.275 14.275C5.64167 14.0917 6.05 14 6.5 14C6.95 14 7.35833 14.0917 7.725 14.275C8.09167 14.4583 8.41667 14.7 8.7 15H15.5V6H3.5V15ZM18.5 18C18.7833 18 19.0208 17.9042 19.2125 17.7125C19.4042 17.5208 19.5 17.2833 19.5 17C19.5 16.7167 19.4042 16.4792 19.2125 16.2875C19.0208 16.0958 18.7833 16 18.5 16C18.2167 16 17.9792 16.0958 17.7875 16.2875C17.5958 16.4792 17.5 16.7167 17.5 17C17.5 17.2833 17.5958 17.5208 17.7875 17.7125C17.9792 17.9042 18.2167 18 18.5 18ZM17.5 13H21.75L19.5 10H17.5V13Z" fill="#169EFF"/>
</svg>
